# xmcd
#
# Track frame offsets:
#	150
#	14049
#	33644
#	56891
#	81581
#	105623
#	117569
#	130647
#	147753
#	167752
#	184395
#	203812
#	223955
#	241965
#	254860
#	273993
#	290474
#
# Disc length: 4103 seconds
#
# Revision: 6
# Processed by: cddbd v1.5.2PL0 Copyright (c) Steve Scherf et al.
# Submitted via: audiograbber 1.83.01
#
DISCID=18100511
DTITLE=Various Artist - Blues, Roots and Beyond.Volume 1 [CD2)
DYEAR=2004
DGENRE=Blues Vocals
TTITLE0=Dallas Frasca and Trevor's House - Blessin' In Disguise
TTITLE1=Joss Stone - Super Duper Love
TTITLE2=Dillinger - Cocaine In My Brain
TTITLE3=Nathan Gaunt - Need For You
TTITLE4=Jim Moray - Lord Bateman
TTITLE5=Jonny Cash - Ring Of Fire
TTITLE6=David Viner - Nobody's Fault
TTITLE7=Jodi Martin - Love That Survives
TTITLE8=Butler Trio, John - Hello
TTITLE9=Mia Dyson - Lonely
TTITLE10=Nick Drake - Riverman
TTITLE11=Eric Bibb - I Hear The Angels Singing
TTITLE12=The Beautiful Girls - La Mar
TTITLE13=Ash Grundwald - Hey Baby
TTITLE14=Terry Callier - Ordinary Joe
TTITLE15=Liam Gerner - Small Wooden Boats
TTITLE16=Josh Ritter - Come And Find Me
EXTD=Produced by Tripple J's Roots 'N All program
EXTT0=
EXTT1=
EXTT2=
EXTT3=
EXTT4=
EXTT5=
EXTT6=
EXTT7=
EXTT8=
EXTT9=
EXTT10=
EXTT11=
EXTT12=
EXTT13=
EXTT14=
EXTT15=
EXTT16=
PLAYORDER=
